# xmcd CD database file
#
# Track frame offsets:
#	150
#	14050
#	29875
#	45550
#	60475
#	77650
#	91600
#	107275
#	123550
#	138475
#	154225
#	170200
#
# Disc length: 2477 seconds
#
# Revision: 0
# Processed by: cddbd v1.5.1PL0 Copyright (c) Steve Scherf et al.
# Submitted via: CDex 1.51
#
DISCID=9d09ab0c
DTITLE=Clifford Brown - Clifford Brown With Strings
DYEAR=1955
DGENRE=Jazz
TTITLE0=Yesterdays
TTITLE1=Laura
TTITLE2=What's New
TTITLE3=Blue Moon
TTITLE4=Can't Help Lovin' Dat Man
TTITLE5=Embraceable You
TTITLE6=Willow Weep For Me
TTITLE7=Memories Of You
TTITLE8=Smoke Gets In Your Eyes
TTITLE9=Portrait Of Jenny
TTITLE10=Where Or When
TTITLE11=Stardust
EXTD=YEAR: 1955
EXTT0=
EXTT1=
EXTT2=
EXTT3=
EXTT4=
EXTT5=
EXTT6=
EXTT7=
EXTT8=
EXTT9=
EXTT10=
EXTT11=
PLAYORDER=
